 <svg  version="1.0" xmlns="http://www.w3.org/2000/svg"  width="300.000000pt" height="160.000000pt" viewBox="0 0 300.000000 160.000000"  preserveAspectRatio="xMidYMid meet">  <g transform="translate(0.000000,160.000000) scale(0.100000,-0.100000)" fill="#000000" stroke="none"> <path d="M840 931 c-32 -9 -37 -38 -11 -62 19 -18 21 -31 21 -131 0 -101 -2 -114 -22 -135 -20 -22 -21 -25 -5 -40 34 -34 207 -24 207 13 0 8 -9 28 -21 43 -19 26 -21 39 -17 136 2 87 6 109 21 119 21 16 22 52 1 60 -21 8 -142 6 -174 -3z"/> <path d="M1048 819 c-24 -14 -23 -34 3 -51 12 -8 47 -61 79 -118 79 -145 91 -145 167 4 26 50 60 103 76 119 44 41 31 59 -40 55 l-58 -3 0 -42 c0 -50 -16 -73 -40 -53 -18 15 -20 41 -2 59 10 10 8 15 -7 27 -23 16 -151 19 -178 3z"/> <path d="M1470 808 c-38 -20 -45 -28 -45 -53 0 -44 37 -47 72 -6 33 37 51 39 59 7 8 -35 1 -42 -47 -49 -23 -3 -54 -14 -68 -25 -89 -66 -12 -169 99 -132 31 10 43 11 52 2 17 -17 55 -15 89 5 36 21 47 50 25 66 -10 8 -17 34 -21 78 -2 36 -7 74 -11 83 -18 48 -130 61 -204 24z m90 -173 c0 -25 -23 -35 -35 -15 -10 16 2 40 20 40 9 0 15 -9 15 -25z"/> <path d="M1783 809 c-39 -15 -53 -26 -53 -40 0 -11 7 -22 15 -25 11 -5 15 -22 15 -69 0 -43 -5 -66 -15 -75 -41 -34 8 -64 93 -58 65 6 80 18 64 53 -14 30 -16 114 -3 133 5 8 17 12 27 10 16 -3 20 -14 22 -63 2 -35 -2 -69 -10 -83 -20 -38 11 -55 89 -50 78 5 94 17 70 57 -12 20 -17 51 -17 101 0 66 -2 74 -29 101 -36 35 -86 39 -124 9 -14 -11 -27 -20 -30 -20 -3 0 -7 9 -10 20 -7 26 -36 25 -104 -1z"/> </g> </svg> 