<?xml version="1.0" standalone="no"?>
<!DOCTYPE svg PUBLIC "-//W3C//DTD SVG 20010904//EN"
 "http://www.w3.org/TR/2001/REC-SVG-20010904/DTD/svg10.dtd">
<svg version="1.0" xmlns="http://www.w3.org/2000/svg"
 width="300.000000pt" height="774.000000pt" viewBox="0 0 300.000000 774.000000"
 preserveAspectRatio="xMidYMid meet">
<metadata>
Created by potrace 1.10, written by Peter Selinger 2001-2011
</metadata>
<g transform="translate(0.000000,774.000000) scale(0.100000,-0.100000)"
fill="#000000" stroke="none">
<path d="M270 4382 l0 -3158 465 -464 465 -465 785 -5 785 -5 0 3167 c0 3073
-1 3167 -19 3180 -10 7 -105 97 -212 199 -107 102 -318 304 -469 447 l-275
262 -762 0 -763 0 0 -3158z m1599 3046 c42 -40 117 -111 166 -158 50 -47 228
-218 398 -379 l307 -293 0 -3139 0 -3139 -763 0 -762 0 -447 448 c-246 246
-450 450 -453 453 -4 5 -7 2878 -5 6077 l0 202 742 0 741 0 76 -72z"/>
<path d="M417 7392 c-16 -17 -17 -247 -17 -3037 l0 -3019 22 -23 21 -23 617 0
c614 0 617 0 636 21 19 21 19 85 19 3046 0 2982 0 3025 -19 3039 -17 12 -120
14 -641 14 -589 0 -623 -1 -638 -18z m1273 -3037 l0 -3025 -630 0 -630 0 0
3025 0 3025 630 0 630 0 0 -3025z"/>
<path d="M1842 7278 c-16 -16 -16 -113 1 -126 21 -18 94 -12 113 9 15 17 15
20 -4 44 -17 21 -89 85 -96 85 -1 0 -7 -5 -14 -12z m64 -63 l49 -45 -53 0 -52
0 0 45 c0 25 1 45 3 45 2 0 26 -20 53 -45z"/>
<path d="M1996 7124 c-10 -10 -16 -33 -16 -63 0 -61 20 -81 81 -81 47 0 69 13
69 40 0 15 -98 120 -112 120 -4 0 -14 -7 -22 -16z m86 -78 l42 -36 -57 0 -57
0 0 57 c0 54 1 56 15 36 8 -12 34 -38 57 -57z"/>
<path d="M1842 6994 c-19 -13 -22 -24 -22 -82 0 -97 1 -97 118 -101 l32 -1 0
-55 0 -55 -53 0 c-84 0 -97 -15 -97 -109 0 -96 12 -111 88 -111 l52 0 0 -45 0
-45 -48 0 c-27 0 -57 -7 -70 -16 -20 -14 -22 -24 -22 -103 0 -54 4 -91 12 -99
7 -7 34 -12 60 -12 l48 0 0 -39 c0 -38 0 -38 -45 -43 -70 -8 -75 -17 -75 -124
0 -110 9 -124 76 -124 44 0 44 0 44 -35 l0 -35 -49 0 c-33 0 -53 -5 -62 -17
-12 -13 -14 -379 -17 -2281 -2 -1588 0 -2273 8 -2291 6 -14 29 -44 53 -67 23
-22 143 -136 267 -254 124 -118 276 -263 338 -322 62 -59 119 -108 126 -108
43 0 41 -99 40 2508 l-1 2475 -22 19 c-15 11 -39 18 -67 18 -43 0 -44 1 -44
34 0 33 1 34 50 38 74 7 80 16 80 118 0 106 -10 120 -88 120 l-52 0 0 50 0 50
58 0 c32 0 63 5 70 12 7 7 12 42 12 88 0 87 -16 113 -67 110 -82 -6 -83 -5
-83 55 l0 55 58 0 c79 0 92 15 92 103 0 60 -3 68 -25 83 -17 11 -41 15 -80 12
l-55 -3 0 66 c0 88 -15 102 -99 97 l-61 -3 0 66 c0 88 -15 102 -99 97 l-61 -3
0 66 c0 88 -15 102 -99 97 l-61 -3 0 67 c0 58 -3 69 -22 82 -12 9 -43 16 -68
16 -25 0 -56 -7 -68 -16z m130 -84 l0 -62 -63 0 -64 0 -3 52 c-2 29 -1 58 1
64 3 7 29 10 67 10 l62 -2 0 -62z m160 -160 l0 -64 -66 -1 -66 0 0 68 0 68 66
-3 66 -3 0 -65z m-152 -157 l0 -73 -70 0 -70 0 0 68 c0 38 2 71 4 73 2 2 34 4
70 4 l66 0 0 -72z m310 2 l0 -65 -65 0 -65 0 0 65 0 65 65 0 65 0 0 -65z
m-160 0 l0 -55 -60 0 -60 0 0 55 0 55 60 0 60 0 0 -55z m10 -160 l0 -75 -75 0
-75 0 0 75 0 75 75 0 75 0 0 -75z m310 -2 l0 -68 -62 1 -63 2 -3 66 -3 66 66
0 65 0 0 -67z m-160 2 l0 -55 -60 0 -60 0 0 55 0 55 60 0 60 0 0 -55z m-300
-162 l0 -78 77 0 78 0 3 -82 3 -83 79 0 80 0 0 -77 0 -78 77 0 78 0 3 -81 3
-81 69 5 70 5 0 -87 0 -86 -67 0 -68 0 2 -72 2 -73 65 1 66 1 0 -91 c1 -50 2
-1167 3 -2482 l2 -2392 -45 41 c-25 22 -135 127 -245 232 -110 105 -264 252
-342 326 l-143 134 0 2278 0 2277 70 0 70 0 0 71 0 72 -70 -5 -70 -5 0 88 0
89 70 0 70 0 0 75 0 75 -70 0 -70 0 0 80 0 80 75 0 75 0 0 -77z m310 0 l0 -73
-75 0 -75 0 0 73 0 72 75 0 75 0 0 -72z m150 7 l0 -60 -60 0 -60 0 0 55 0 54
58 4 c31 2 58 4 60 5 1 1 2 -25 2 -58z m162 -5 l3 -65 -67 0 -68 0 0 65 0 65
64 0 64 0 4 -65z m-492 5 l0 -50 -50 0 -50 0 0 50 0 50 50 0 50 0 0 -50z m340
-165 l0 -75 -75 0 -75 0 0 75 0 75 75 0 75 0 0 -75z m-180 0 l0 -45 -50 0 -50
0 0 45 0 45 50 0 50 0 0 -45z m332 -160 l3 -75 -72 0 -73 0 0 75 0 75 69 0 69
0 4 -75z m-172 -1 l0 -44 -50 0 -50 0 0 44 c0 44 0 45 38 48 56 5 62 0 62 -48z"/>
<path d="M1997 5958 l2 -73 70 -2 71 -1 0 74 0 74 -72 0 -73 0 2 -72z m113 -3
c0 -34 -1 -35 -40 -35 -39 0 -40 1 -40 35 0 34 1 35 40 35 39 0 40 -1 40 -35z"/>
<path d="M2157 5798 l1 -73 71 -3 71 -3 0 76 0 75 -72 0 -73 0 2 -72z m113 -3
c0 -34 -1 -35 -40 -35 -39 0 -40 1 -40 35 0 34 1 35 40 35 39 0 40 -1 40 -35z"/>
<path d="M2000 5645 l0 -65 70 0 70 0 0 65 0 65 -70 0 -70 0 0 -65z m100 -5
c0 -27 -3 -30 -30 -30 -27 0 -30 3 -30 30 0 27 3 30 30 30 27 0 30 -3 30 -30z"/>
<path d="M2317 5639 l2 -72 70 -1 71 -1 0 73 0 72 -72 0 -73 0 2 -71z m113 1
c0 -40 0 -40 -40 -40 -40 0 -40 0 -40 40 0 40 0 40 40 40 40 0 40 0 40 -40z"/>
<path d="M2160 5485 l0 -65 65 0 65 0 0 65 0 65 -65 0 -65 0 0 -65z m100 -5
c0 -27 -3 -30 -30 -30 -27 0 -30 3 -30 30 0 27 3 30 30 30 27 0 30 -3 30 -30z"/>
<path d="M1860 5485 l0 -55 55 0 55 0 0 55 0 55 -55 0 -55 0 0 -55z m70 0 c0
-20 -5 -25 -25 -25 -20 0 -25 5 -25 25 0 20 5 25 25 25 20 0 25 -5 25 -25z"/>
<path d="M2320 5325 l0 -65 65 0 65 0 0 65 0 65 -65 0 -65 0 0 -65z m100 0 c0
-33 -2 -35 -35 -35 -33 0 -35 2 -35 35 0 33 2 35 35 35 33 0 35 -2 35 -35z"/>
<path d="M2010 5325 l0 -55 60 0 60 0 0 55 0 55 -60 0 -60 0 0 -55z m80 0 c0
-18 -5 -25 -20 -25 -15 0 -20 7 -20 25 0 18 5 25 20 25 15 0 20 -7 20 -25z"/>
<path d="M2480 5165 l0 -65 60 0 60 0 0 65 0 65 -60 0 -60 0 0 -65z m92 10 c6
-30 2 -35 -34 -35 -24 0 -28 4 -28 30 0 26 3 30 29 30 23 0 30 -5 33 -25z"/>
<path d="M1860 5170 l0 -50 50 0 50 0 0 50 0 50 -50 0 -50 0 0 -50z m70 -5 c0
-8 -9 -15 -20 -15 -11 0 -20 7 -20 15 0 8 9 15 20 15 11 0 20 -7 20 -15z"/>
<path d="M2170 5165 l0 -55 58 0 57 0 0 55 0 55 -57 0 -58 0 0 -55z m80 0 c0
-18 -5 -25 -20 -25 -15 0 -20 7 -20 25 0 18 5 25 20 25 15 0 20 -7 20 -25z"/>
<path d="M2330 5010 l0 -60 58 0 57 0 0 60 0 60 -57 0 -58 0 0 -60z m80 -5 c0
-20 -5 -25 -25 -25 -20 0 -25 5 -25 25 0 20 5 25 25 25 20 0 25 -5 25 -25z"/>
<path d="M2020 5010 l0 -50 50 0 50 0 0 50 0 50 -50 0 -50 0 0 -50z m70 0 c0
-11 -7 -20 -15 -20 -8 0 -15 9 -15 20 0 11 7 20 15 20 8 0 15 -9 15 -20z"/>
<path d="M2490 4850 l0 -60 55 0 55 0 0 60 0 60 -55 0 -55 0 0 -60z m80 0 c0
-15 -7 -20 -25 -20 -18 0 -25 5 -25 20 0 15 7 20 25 20 18 0 25 -5 25 -20z"/>
<path d="M2180 4850 l0 -50 50 0 50 0 0 50 0 50 -50 0 -50 0 0 -50z m60 0 c0
-11 -7 -20 -15 -20 -27 0 -18 30 13 39 1 1 2 -8 2 -19z"/>
<path d="M1870 4850 c0 -40 0 -40 40 -40 40 0 40 0 40 40 0 40 0 40 -40 40
-40 0 -40 0 -40 -40z m50 0 c0 -5 -4 -10 -10 -10 -5 0 -10 5 -10 10 0 6 5 10
10 10 6 0 10 -4 10 -10z"/>
<path d="M2030 4693 l0 -43 40 0 40 0 0 43 0 42 -40 0 -40 0 0 -42z"/>
<path d="M2340 4693 l0 -48 47 1 48 1 3 47 3 46 -50 0 -51 0 0 -47z m60 2 c0
-8 -7 -15 -15 -15 -8 0 -15 7 -15 15 0 8 7 15 15 15 8 0 15 -7 15 -15z"/>
<path d="M2500 4535 l0 -50 45 3 45 4 0 47 0 46 -45 0 -45 0 0 -50z m60 0 c0
-8 -7 -15 -15 -15 -8 0 -15 7 -15 15 0 8 7 15 15 15 8 0 15 -7 15 -15z"/>
<path d="M2190 4538 l0 -43 37 1 c37 1 38 2 41 43 l3 41 -40 0 -41 0 0 -42z"/>
<path d="M1880 4535 c0 -32 2 -35 30 -35 28 0 30 3 30 35 0 32 -2 35 -30 35
-28 0 -30 -3 -30 -35z"/>
<path d="M2350 4375 c0 -40 0 -40 37 -39 37 1 38 2 41 41 l3 40 -40 -1 c-41
-1 -41 -1 -41 -41z"/>
<path d="M2040 4375 c0 -32 2 -35 30 -35 28 0 30 3 30 35 0 32 -2 35 -30 35
-28 0 -30 -3 -30 -35z"/>
<path d="M2505 4220 l0 -40 43 0 42 0 0 40 0 40 -42 0 -43 0 0 -40z"/>
<path d="M2193 4220 c0 -27 3 -30 34 -30 30 0 33 3 33 30 0 27 -3 30 -33 30
-31 0 -34 -3 -34 -30z"/>
<path d="M1890 4220 c0 -14 7 -20 23 -20 16 0 23 6 23 20 0 14 -7 20 -23 20
-16 0 -23 -6 -23 -20z"/>
<path d="M2353 4060 c0 -27 3 -30 34 -30 30 0 33 3 33 30 0 27 -3 30 -33 30
-31 0 -34 -3 -34 -30z"/>
<path d="M2050 4060 c0 -14 7 -20 24 -20 19 0 23 4 19 20 -3 11 -14 20 -24 20
-12 0 -19 -7 -19 -20z"/>
<path d="M2510 3900 c0 -28 3 -30 35 -30 32 0 35 2 35 30 0 28 -3 30 -35 30
-32 0 -35 -2 -35 -30z"/>
<path d="M2200 3900 c0 -15 7 -20 25 -20 18 0 25 5 25 20 0 15 -7 20 -25 20
-18 0 -25 -5 -25 -20z"/>
<path d="M2360 3745 c0 -20 5 -25 25 -25 20 0 25 5 25 25 0 20 -5 25 -25 25
-20 0 -25 -5 -25 -25z"/>
<path d="M2520 3585 c0 -20 5 -25 25 -25 20 0 25 5 25 25 0 20 -5 25 -25 25
-20 0 -25 -5 -25 -25z"/>
<path d="M2162 6968 c-15 -15 -16 -102 -2 -129 9 -15 22 -19 63 -19 94 0 101
34 23 109 -58 54 -65 58 -84 39z m127 -115 c2 -2 -23 -3 -57 -3 l-62 0 0 56 0
57 58 -53 c31 -30 59 -55 61 -57z"/>
<path d="M2317 6812 c-22 -24 -22 -100 -1 -130 12 -18 25 -22 68 -22 62 0 95
24 77 57 -10 21 -110 113 -121 113 -4 0 -14 -8 -23 -18z m83 -67 l54 -55 -62
0 -62 0 0 55 c0 30 4 55 8 55 4 0 32 -25 62 -55z"/>
<path d="M2482 6658 c-16 -16 -16 -132 1 -146 19 -16 109 -11 130 6 27 24 21
39 -40 97 -59 57 -71 63 -91 43z m78 -68 c30 -27 53 -50 50 -50 -3 -1 -31 -2
-63 -3 l-57 -2 0 53 c0 28 3 52 8 52 4 0 32 -22 62 -50z"/>
</g>
</svg>
