<!DOCTYPE svg PUBLIC "-//W3C//DTD SVG 1.1//EN" "http://www.w3.org/Graphics/SVG/1.1/DTD/svg11.dtd">
<!-- Uploaded to: SVG Repo, www.svgrepo.com, Transformed by: SVG Repo Mixer Tools -->
<svg xmlns="http://www.w3.org/2000/svg" xmlns:xlink="http://www.w3.org/1999/xlink" version="1.1" id="Layer_1" viewBox="-43.95 -43.95 527.38 527.38" xml:space="preserve" width="256px" height="256px" fill="#000000" transform="matrix(1, 0, 0, 1, 0, 0)rotate(0)">
<g id="SVGRepo_bgCarrier" stroke-width="0" transform="translate(0,0), scale(1)">
<path transform="translate(-43.95, -43.95), scale(16.480625)" d="M16,29.245284031419192C19.869751920280645,29.406225867405883,23.203156644792696,26.691506796344655,25.457337021748657,23.541974604536925C27.559670886006373,20.604601778876585,27.7806925811532,16.997879544426443,27.33089822018877,13.41379642226295C26.79305381962879,9.12810677007626,26.653678773934995,3.832230933913148,22.751423583505378,1.980524471528005C18.857029058547294,0.1325480689011218,14.927985991718783,3.839327200271685,11.029357518599618,5.678354532660693C7.0612282403901645,7.5501661842187,1.4116123959975824,8.170907381568593,0.5207835785866664,12.466969863139555C-0.3659723158060266,16.743390488242778,4.518762559490623,19.584330162556807,7.480203548290207,22.794310948933287C10.021477658689975,25.5488622292564,12.255487476193704,29.08955086483087,16,29.245284031419192" fill="#7ed0ec" strokewidth="0"/>
</g>
<g id="SVGRepo_tracerCarrier" stroke-linecap="round" stroke-linejoin="round" stroke="#CCCCCC" stroke-width="3.51584"/>
<g id="SVGRepo_iconCarrier"> <g> <path style="fill:#666666;" d="M303.896,231.916c-2.486,0-4.5-2.015-4.5-4.5v-27.218c0-2.485,2.014-4.5,4.5-4.5s4.5,2.015,4.5,4.5 v27.218C308.396,229.901,306.382,231.916,303.896,231.916z"/> <path style="fill:#666666;" d="M286.896,240.916c-2.486,0-4.5-2.015-4.5-4.5v-27.218c0-2.485,2.014-4.5,4.5-4.5s4.5,2.015,4.5,4.5 v27.218C291.396,238.901,289.382,240.916,286.896,240.916z"/> <polyline style="fill:#B3B3B3;" points="404.57,391.967 404.57,350.777 345.73,350.777 345.73,391.679 "/> <polygon style="fill:#CCCCCC;" points="353.23,224.417 353.23,391.967 313.23,391.967 260.57,260.637 260.57,224.417 "/> <path style="fill:#CCCCCC;" d="M70.268,106.889c-2.762,0-5-2.239-5-5V28.393c0-2.761,2.238-5,5-5s5,2.239,5,5v73.497 C75.268,104.65,73.03,106.889,70.268,106.889z"/> <polygon style="fill:#CCCCCC;" points="81.77,131.387 69.74,137.197 58.77,131.387 61.84,93.347 78.69,93.347 "/> <path style="fill:#666666;" d="M285.896,279.916c-2.486,0-4.5-2.015-4.5-4.5v-27.218c0-2.485,2.014-4.5,4.5-4.5s4.5,2.015,4.5,4.5 v27.218C290.396,277.901,288.382,279.916,285.896,279.916z"/> <path style="fill:#666666;" d="M238.896,271.916c-2.486,0-4.5-2.015-4.5-4.5v-27.218c0-2.485,2.014-4.5,4.5-4.5s4.5,2.015,4.5,4.5 v27.218C243.396,269.901,241.382,271.916,238.896,271.916z"/> <path style="fill:#CCCCCC;" d="M88.37,349.867c-3.76,2.32-11.12,42.1-11.12,42.1H51.02l8.3-223.49l13.42-6.28l8.9,6.28 L88.37,349.867z"/> <path style="fill:#ED2E2E;" d="M81.77,131.387h0.24c5.13,0,9.76,2.07,13.12,5.43c3.35,3.36,5.43,7.99,5.43,13.11 c0,10.25-8.3,18.55-18.55,18.55h-3.57H62.1h-3.58c-5.12,0-9.76-2.08-13.11-5.43c-3.35-3.36-5.43-7.99-5.43-13.12 c0-10.24,8.3-18.54,18.54-18.54h0.25H81.77z"/> <path style="fill:#D82525;" d="M69.41,163.047c-3.35-3.36-5.43-7.99-5.43-13.12c0-10.154,8.164-18.389,18.285-18.527 c-0.086-0.001-0.169-0.013-0.255-0.013h-0.24h-23h-0.25c-10.24,0-18.54,8.3-18.54,18.54c0,5.13,2.08,9.76,5.43,13.12 c3.35,3.35,7.99,5.43,13.11,5.43h3.58h16.34h3.57c0.086,0,0.169-0.012,0.255-0.013C77.247,168.396,72.704,166.341,69.41,163.047z"/> <path style="fill:#3B9DFF;" d="M244.35,357.197c-7.08-7.18-15.07-13.45-23.78-18.64c-17.75-10.59-38.5-16.67-60.67-16.67 c-29.17,0-55.88,10.52-76.53,27.98c-2.75,2.32-5.4,4.77-7.92,7.33c-0.08,0.08-0.16,0.15-0.22,0.23v34.54h9.29h136.05h23.99v-34.55 C244.5,357.337,244.43,357.277,244.35,357.197z"/> <path style="fill:#E6E6E6;" d="M313.23,260.637v131.33h-68.67v-34.55l0.01,0.01l-0.01-0.23h-0.21 c-7.08-7.18-15.07-13.45-23.78-18.64v-77.92H313.23z"/> <path style="fill:#666666;" d="M247.19,285.557c0,3.31-2.69,6-6,6h-20.62v-12h20.62C244.5,279.557,247.19,282.247,247.19,285.557z"/> <path style="fill:#666666;" d="M247.19,307.887c0,3.32-2.69,6-6,6h-20.62v-12h20.62C244.5,301.887,247.19,304.577,247.19,307.887z"/> <path style="fill:#666666;" d="M247.19,330.227c0,3.31-2.69,6-6,6h-20.62v-12h20.62C244.5,324.227,247.19,326.907,247.19,330.227z"/> <g> <path style="fill:#666666;" d="M313.23,279.557v12h-49.59c-3.32,0-6-2.69-6-6c0-3.31,2.68-6,6-6H313.23z"/> <path style="fill:#666666;" d="M313.23,301.887v12h-49.59c-3.32,0-6-2.68-6-6c0-3.31,2.68-6,6-6H313.23z"/> <path style="fill:#666666;" d="M313.23,347.057v12h-49.59c-3.32,0-6-2.69-6-6s2.68-6,6-6H313.23z"/> <path style="fill:#666666;" d="M313.23,324.227v12h-49.59c-3.32,0-6-2.69-6-6c0-3.32,2.68-6,6-6H313.23z"/> </g> <path style="fill:#666666;" d="M353.23,253.137v15h-15.17c-4.14,0-7.5-3.36-7.5-7.5c0-4.14,3.36-7.5,7.5-7.5H353.23z"/> <path style="fill:#666666;" d="M353.23,277.637v15h-15.17c-4.14,0-7.5-3.36-7.5-7.5c0-4.14,3.36-7.5,7.5-7.5H353.23z"/> <path style="fill:#666666;" d="M353.23,351.137v15h-15.17c-4.14,0-7.5-3.36-7.5-7.5s3.36-7.5,7.5-7.5H353.23z"/> <path style="fill:#666666;" d="M404.57,363.872v15H389.4c-4.14,0-7.5-3.36-7.5-7.5s3.36-7.5,7.5-7.5H404.57z"/> <path style="fill:#666666;" d="M353.23,326.637v15h-15.17c-4.14,0-7.5-3.36-7.5-7.5c0-4.14,3.36-7.5,7.5-7.5H353.23z"/> <path style="fill:#666666;" d="M353.23,302.137v15h-15.17c-4.14,0-7.5-3.36-7.5-7.5c0-4.14,3.36-7.5,7.5-7.5H353.23z"/> <polygon style="fill:#B3B3B3;" points="70.27,168.477 70.27,391.967 51.02,391.967 59.32,168.477 "/> <polygon style="fill:#B3B3B3;" points="70.27,93.347 70.27,131.387 58.77,131.387 61.84,93.347 "/> <path style="fill:#1E79C4;" d="M244.35,357.197h-121.9c2.52-2.56,5.17-5.01,7.92-7.33c14.96-12.65,33.09-21.65,53.04-25.65 c-7.6-1.53-15.46-2.33-23.51-2.33c-29.17,0-55.88,10.52-76.53,27.98c-2.75,2.32-5.4,4.77-7.92,7.33c-0.08,0.08-0.16,0.15-0.22,0.23 v34.54h47v-25.77h122.12V357.197z"/> <g> <path style="fill:#E6E6E6;" d="M439.48,416.087H0c0-4.7,1.27-9.11,3.5-12.89c4.42-7.55,12.62-12.61,22-12.61h388.48 c7.04,0,13.42,2.85,18.03,7.47c1.53,1.53,2.87,3.26,3.97,5.14C438.2,406.977,439.48,411.387,439.48,416.087z"/> <path style="fill:#B3B3B3;" d="M439.48,416.087H0c0-4.7,1.27-9.11,3.5-12.89h432.48C438.2,406.977,439.48,411.387,439.48,416.087z "/> </g> <path style="fill:#FFD039;" d="M303.275,39.551c-27.75,0-50.24,22.5-50.24,50.25s22.49,50.25,50.24,50.25 c27.76,0,50.25-22.5,50.25-50.25S331.035,39.551,303.275,39.551z"/> <path style="fill:#EAB932;" d="M303.28,39.547c27.75,0,50.24,22.5,50.24,50.25s-22.49,50.25-50.24,50.25s-50.25-22.5-50.25-50.25 S275.53,39.547,303.28,39.547z"/> <path style="fill:#FFD039;" d="M353.52,89.797c0,27.75-22.49,50.25-50.24,50.25c-6.12,0-11.98-1.09-17.4-3.1 c-2.01-5.42-3.1-11.28-3.1-17.4c0-27.75,22.49-50.25,50.25-50.25c6.11,0,11.97,1.09,17.39,3.09 C352.43,77.817,353.52,83.677,353.52,89.797z"/> </g> </g>
</svg>